<mxfile host="app.diagrams.net" modified="2023-04-10T12:07:04.491Z" agent="Mozilla/5.0 (Windows NT 10.0; Win64; x64) AppleWebKit/537.36 (KHTML, like Gecko) Chrome/112.0.0.0 Safari/537.36" version="21.1.2" etag="cttpTWrs9abOMqQYGuUV" type="github">
  <diagram name="Page-1" id="BQi_Npg3bvt2SGq1sg37">
    <mxGraphModel>
      <root>
        <mxCell id="0" />
        <mxCell id="1" parent="0" />
      </root>
    </mxGraphModel>
  </diagram>
</mxfile>
